# xmcd CD database file
#
# Track frame offsets:
#	150
#	37302
#	71430
#	110045
#
# Disc length: 2003 seconds
#
# Revision: 2
# Processed by: cddbd v1.5.2PL0 Copyright (c) Steve Scherf et al.
# Submitted via: CDex 1.51
#
DISCID=3807d104
DTITLE=Cecil Taylor - Jumpin' Punkins
DYEAR=1961
DGENRE=Jazz
TTITLE0=Jumpin' Punkins
TTITLE1=O.P.
TTITLE2=I Forgot
TTITLE3=Things Ain't What They Used To Be (take 3)
EXTD=YEAR: 1961
EXTT0=
EXTT1=
EXTT2=
EXTT3=
PLAYORDER=
